<?xml version="1.0" encoding="UTF-8" standalone="no"?>
<!-- Generator: Adobe Illustrator 18.0.0, SVG Export Plug-In . SVG Version: 6.00 Build 0)  -->

<svg
   xmlns:dc="http://purl.org/dc/elements/1.1/"
   xmlns:cc="http://creativecommons.org/ns#"
   xmlns:rdf="http://www.w3.org/1999/02/22-rdf-syntax-ns#"
   xmlns:svg="http://www.w3.org/2000/svg"
   xmlns="http://www.w3.org/2000/svg"
   xmlns:sodipodi="http://sodipodi.sourceforge.net/DTD/sodipodi-0.dtd"
   xmlns:inkscape="http://www.inkscape.org/namespaces/inkscape"
   version="1.1"
   id="Capa_1"
   x="0px"
   y="0px"
   viewBox="0 0 350 350"
   style="enable-background:new 0 0 350 350;"
   xml:space="preserve"
   sodipodi:docname="user.svg"
   inkscape:version="0.92.3 (2405546, 2018-03-11)"><metadata
   id="metadata102"><rdf:RDF><cc:Work
       rdf:about=""><dc:format>image/svg+xml</dc:format><dc:type
         rdf:resource="http://purl.org/dc/dcmitype/StillImage" /></cc:Work></rdf:RDF></metadata><defs
   id="defs100" /><sodipodi:namedview
   pagecolor="#ffffff"
   bordercolor="#666666"
   borderopacity="1"
   objecttolerance="10"
   gridtolerance="10"
   guidetolerance="10"
   inkscape:pageopacity="0"
   inkscape:pageshadow="2"
   inkscape:window-width="1440"
   inkscape:window-height="837"
   id="namedview98"
   showgrid="false"
   inkscape:zoom="1.8228571"
   inkscape:cx="85.854232"
   inkscape:cy="175"
   inkscape:window-x="-8"
   inkscape:window-y="-8"
   inkscape:window-maximized="1"
   inkscape:current-layer="g65" />
<g
   id="g65">
	
	
	
	<g
   id="g108"
   style="fill:#81d4fa;fill-opacity:1"><path
     id="path57"
     d="M175,171.173c38.914,0,70.463-38.318,70.463-85.586C245.463,38.318,235.105,0,175,0s-70.465,38.318-70.465,85.587   C104.535,132.855,136.084,171.173,175,171.173z"
     style="fill:#81d4fa;fill-opacity:1" /><path
     id="path59"
     d="M41.909,301.853C41.897,298.971,41.885,301.041,41.909,301.853L41.909,301.853z"
     style="fill:#81d4fa;fill-opacity:1" /><path
     id="path61"
     d="M308.085,304.104C308.123,303.315,308.098,298.63,308.085,304.104L308.085,304.104z"
     style="fill:#81d4fa;fill-opacity:1" /><path
     id="path63"
     d="M307.935,298.397c-1.305-82.342-12.059-105.805-94.352-120.657c0,0-11.584,14.761-38.584,14.761   s-38.586-14.761-38.586-14.761c-81.395,14.69-92.803,37.805-94.303,117.982c-0.123,6.547-0.18,6.891-0.202,6.131   c0.005,1.424,0.011,4.058,0.011,8.651c0,0,19.592,39.496,133.08,39.496c113.486,0,133.08-39.496,133.08-39.496   c0-2.951,0.002-5.003,0.005-6.399C308.062,304.575,308.018,303.664,307.935,298.397z"
     style="fill:#81d4fa;fill-opacity:1" /></g>
</g>
<g
   id="g67">
</g>
<g
   id="g69">
</g>
<g
   id="g71">
</g>
<g
   id="g73">
</g>
<g
   id="g75">
</g>
<g
   id="g77">
</g>
<g
   id="g79">
</g>
<g
   id="g81">
</g>
<g
   id="g83">
</g>
<g
   id="g85">
</g>
<g
   id="g87">
</g>
<g
   id="g89">
</g>
<g
   id="g91">
</g>
<g
   id="g93">
</g>
<g
   id="g95">
</g>
</svg>