<?xml version="1.0" encoding="UTF-8" standalone="no"?>
<!-- Generator: Adobe Illustrator 19.0.0, SVG Export Plug-In . SVG Version: 6.00 Build 0)  -->

<svg
   xmlns:dc="http://purl.org/dc/elements/1.1/"
   xmlns:cc="http://creativecommons.org/ns#"
   xmlns:rdf="http://www.w3.org/1999/02/22-rdf-syntax-ns#"
   xmlns:svg="http://www.w3.org/2000/svg"
   xmlns="http://www.w3.org/2000/svg"
   xmlns:sodipodi="http://sodipodi.sourceforge.net/DTD/sodipodi-0.dtd"
   xmlns:inkscape="http://www.inkscape.org/namespaces/inkscape"
   version="1.1"
   id="Capa_1"
   x="0px"
   y="0px"
   viewBox="0 0 480 480"
   style="enable-background:new 0 0 480 480;"
   xml:space="preserve"
   sodipodi:docname="checklist.svg"
   inkscape:version="0.92.3 (2405546, 2018-03-11)"><metadata
   id="metadata1899"><rdf:RDF><cc:Work
       rdf:about=""><dc:format>image/svg+xml</dc:format><dc:type
         rdf:resource="http://purl.org/dc/dcmitype/StillImage" /></cc:Work></rdf:RDF></metadata><defs
   id="defs1897" /><sodipodi:namedview
   pagecolor="#ffffff"
   bordercolor="#666666"
   borderopacity="1"
   objecttolerance="10"
   gridtolerance="10"
   guidetolerance="10"
   inkscape:pageopacity="0"
   inkscape:pageshadow="2"
   inkscape:window-width="1440"
   inkscape:window-height="837"
   id="namedview1895"
   showgrid="false"
   inkscape:zoom="0.49166667"
   inkscape:cx="240"
   inkscape:cy="240"
   inkscape:window-x="-8"
   inkscape:window-y="-8"
   inkscape:window-maximized="1"
   inkscape:current-layer="Capa_1" />
<g
   id="g1784"
   style="fill:#00c853;fill-opacity:1">
	<g
   id="g1782"
   style="fill:#00c853;fill-opacity:1">
		<path
   d="M440,0H104C81.92,0.026,64.026,17.92,64,40v376H8c-4.418,0-8,3.582-8,8v16c0.026,22.08,17.92,39.974,40,40h336    c22.08-0.026,39.974-17.92,40-40V251.312l49.656-49.656c9.751-9.751,9.751-25.561,0-35.312s-25.561-9.751-35.312,0L416,180.688V64    h56c4.418,0,8-3.582,8-8V40C479.974,17.92,462.08,0.026,440,0z M40,464c-13.255,0-24-10.745-24-24v-8h320v8    c0.018,2.493,0.27,4.978,0.752,7.424c0.144,0.8,0.376,1.48,0.56,2.224c0.397,1.629,0.894,3.232,1.488,4.8    c0.312,0.8,0.648,1.552,1.008,2.32c0.682,1.458,1.452,2.874,2.304,4.24c0.416,0.672,0.8,1.352,1.272,1.992    c0.224,0.328,0.392,0.688,0.632,1H40z M400,440c0,13.255-10.745,24-24,24s-24-10.745-24-24v-16c0-4.418-3.582-8-8-8H80V40    c0-13.255,10.745-24,24-24h304c-0.24,0.312-0.408,0.672-0.632,1c-0.456,0.64-0.856,1.32-1.272,1.992    c-0.852,1.366-1.622,2.782-2.304,4.24c-0.36,0.8-0.696,1.536-1.008,2.32c-0.594,1.568-1.091,3.171-1.488,4.8    c-0.184,0.744-0.416,1.464-0.56,2.224c-0.477,2.446-0.723,4.932-0.736,7.424v156.688L298.344,298.344    c-1.026,1.026-1.753,2.312-2.104,3.72l-8,32c-0.68,2.725,0.119,5.606,2.104,7.592c0.675,0.649,1.461,1.172,2.32,1.544    c0.208,0.096,0.4,0.184,0.616,0.264c0.854,0.326,1.758,0.505,2.672,0.528H296c0.653-0.001,1.303-0.081,1.936-0.24l32-8    c1.408-0.351,2.694-1.078,3.72-2.104L400,267.312V440z M441.656,177.656c3.55-3.391,9.138-3.391,12.688,0    c3.497,3.506,3.497,9.182,0,12.688L448,196.688L435.312,184L441.656,177.656z M424,195.312L436.688,208l-112.8,112.8    l-16.912,4.232l4.232-16.912L424,195.312z M464,48h-48v-8c0-13.255,10.745-24,24-24s24,10.745,24,24V48z"
   id="path1780"
   style="fill:#00c853;fill-opacity:1" />
	</g>
</g>
<g
   id="g1790"
   style="fill:#00c853;fill-opacity:1">
	<g
   id="g1788"
   style="fill:#00c853;fill-opacity:1">
		<rect
   x="152"
   y="48"
   width="176"
   height="16"
   id="rect1786"
   style="fill:#00c853;fill-opacity:1" />
	</g>
</g>
<g
   id="g1796"
   style="fill:#00c853;fill-opacity:1">
	<g
   id="g1794"
   style="fill:#00c853;fill-opacity:1">
		<path
   d="M178.344,82.344L163.68,97.008c-1.124-0.637-2.389-0.983-3.68-1.008h-40c-4.418,0-8,3.582-8,8v40c0,4.418,3.582,8,8,8h40    c4.418,0,8-3.582,8-8v-28.688l21.656-21.656L178.344,82.344z M152,136h-24v-24h20.688l-10.344,10.344l11.312,11.312l2.344-2.344    V136z"
   id="path1792"
   style="fill:#00c853;fill-opacity:1" />
	</g>
</g>
<g
   id="g1802"
   style="fill:#00c853;fill-opacity:1">
	<g
   id="g1800"
   style="fill:#00c853;fill-opacity:1">
		<rect
   x="200"
   y="96"
   width="168"
   height="16"
   id="rect1798"
   style="fill:#00c853;fill-opacity:1" />
	</g>
</g>
<g
   id="g1808"
   style="fill:#00c853;fill-opacity:1">
	<g
   id="g1806"
   style="fill:#00c853;fill-opacity:1">
		<rect
   x="200"
   y="128"
   width="136"
   height="16"
   id="rect1804"
   style="fill:#00c853;fill-opacity:1" />
	</g>
</g>
<g
   id="g1814"
   style="fill:#00c853;fill-opacity:1">
	<g
   id="g1812"
   style="fill:#00c853;fill-opacity:1">
		<path
   d="M178.344,162.344l-14.664,14.664c-1.124-0.637-2.389-0.983-3.68-1.008h-40c-4.418,0-8,3.582-8,8v40c0,4.418,3.582,8,8,8    h40c4.418,0,8-3.582,8-8v-28.688l21.656-21.656L178.344,162.344z M152,216h-24v-24h20.688l-10.344,10.344l11.312,11.312    l2.344-2.344V216z"
   id="path1810"
   style="fill:#00c853;fill-opacity:1" />
	</g>
</g>
<g
   id="g1820"
   style="fill:#00c853;fill-opacity:1">
	<g
   id="g1818"
   style="fill:#00c853;fill-opacity:1">
		<rect
   x="200"
   y="176"
   width="168"
   height="16"
   id="rect1816"
   style="fill:#00c853;fill-opacity:1" />
	</g>
</g>
<g
   id="g1826"
   style="fill:#00c853;fill-opacity:1">
	<g
   id="g1824"
   style="fill:#00c853;fill-opacity:1">
		<rect
   x="200"
   y="208"
   width="136"
   height="16"
   id="rect1822"
   style="fill:#00c853;fill-opacity:1" />
	</g>
</g>
<g
   id="g1832"
   style="fill:#00c853;fill-opacity:1">
	<g
   id="g1830"
   style="fill:#00c853;fill-opacity:1">
		<path
   d="M178.344,242.344l-14.664,14.664c-1.124-0.637-2.389-0.983-3.68-1.008h-40c-4.418,0-8,3.582-8,8v40c0,4.418,3.582,8,8,8    h40c4.418,0,8-3.582,8-8v-28.688l21.656-21.656L178.344,242.344z M152,296h-24v-24h20.688l-10.344,10.344l11.312,11.312    l2.344-2.344V296z"
   id="path1828"
   style="fill:#00c853;fill-opacity:1" />
	</g>
</g>
<g
   id="g1838"
   style="fill:#00c853;fill-opacity:1">
	<g
   id="g1836"
   style="fill:#00c853;fill-opacity:1">
		<rect
   x="200"
   y="256"
   width="104"
   height="16"
   id="rect1834"
   style="fill:#00c853;fill-opacity:1" />
	</g>
</g>
<g
   id="g1844"
   style="fill:#00c853;fill-opacity:1">
	<g
   id="g1842"
   style="fill:#00c853;fill-opacity:1">
		<rect
   x="200"
   y="288"
   width="72"
   height="16"
   id="rect1840"
   style="fill:#00c853;fill-opacity:1" />
	</g>
</g>
<g
   id="g1850"
   style="fill:#00c853;fill-opacity:1">
	<g
   id="g1848"
   style="fill:#00c853;fill-opacity:1">
		<path
   d="M178.344,322.344l-14.664,14.664c-1.124-0.637-2.389-0.983-3.68-1.008h-40c-4.418,0-8,3.582-8,8v40c0,4.418,3.582,8,8,8    h40c4.418,0,8-3.582,8-8v-28.688l21.656-21.656L178.344,322.344z M152,376h-24v-24h20.688l-10.344,10.344l11.312,11.312    l2.344-2.344V376z"
   id="path1846"
   style="fill:#00c853;fill-opacity:1" />
	</g>
</g>
<g
   id="g1856"
   style="fill:#00c853;fill-opacity:1">
	<g
   id="g1854"
   style="fill:#00c853;fill-opacity:1">
		<rect
   x="200"
   y="336"
   width="72"
   height="16"
   id="rect1852"
   style="fill:#00c853;fill-opacity:1" />
	</g>
</g>
<g
   id="g1862"
   style="fill:#00c853;fill-opacity:1">
	<g
   id="g1860"
   style="fill:#00c853;fill-opacity:1">
		<rect
   x="200"
   y="368"
   width="136"
   height="16"
   id="rect1858"
   style="fill:#00c853;fill-opacity:1" />
	</g>
</g>
<g
   id="g1864"
   style="fill:#00c853;fill-opacity:1">
</g>
<g
   id="g1866"
   style="fill:#00c853;fill-opacity:1">
</g>
<g
   id="g1868"
   style="fill:#00c853;fill-opacity:1">
</g>
<g
   id="g1870"
   style="fill:#00c853;fill-opacity:1">
</g>
<g
   id="g1872"
   style="fill:#00c853;fill-opacity:1">
</g>
<g
   id="g1874"
   style="fill:#00c853;fill-opacity:1">
</g>
<g
   id="g1876"
   style="fill:#00c853;fill-opacity:1">
</g>
<g
   id="g1878"
   style="fill:#00c853;fill-opacity:1">
</g>
<g
   id="g1880"
   style="fill:#00c853;fill-opacity:1">
</g>
<g
   id="g1882"
   style="fill:#00c853;fill-opacity:1">
</g>
<g
   id="g1884"
   style="fill:#00c853;fill-opacity:1">
</g>
<g
   id="g1886"
   style="fill:#00c853;fill-opacity:1">
</g>
<g
   id="g1888"
   style="fill:#00c853;fill-opacity:1">
</g>
<g
   id="g1890"
   style="fill:#00c853;fill-opacity:1">
</g>
<g
   id="g1892"
   style="fill:#00c853;fill-opacity:1">
</g>
</svg>