<?xml version="1.0" encoding="UTF-8" standalone="no"?>
<!-- Generator: Adobe Illustrator 18.1.1, SVG Export Plug-In . SVG Version: 6.00 Build 0)  -->

<svg
   xmlns:dc="http://purl.org/dc/elements/1.1/"
   xmlns:cc="http://creativecommons.org/ns#"
   xmlns:rdf="http://www.w3.org/1999/02/22-rdf-syntax-ns#"
   xmlns:svg="http://www.w3.org/2000/svg"
   xmlns="http://www.w3.org/2000/svg"
   xmlns:sodipodi="http://sodipodi.sourceforge.net/DTD/sodipodi-0.dtd"
   xmlns:inkscape="http://www.inkscape.org/namespaces/inkscape"
   version="1.1"
   id="Capa_1"
   x="0px"
   y="0px"
   viewBox="0 0 293.709 293.709"
   style="enable-background:new 0 0 293.709 293.709;"
   xml:space="preserve"
   sodipodi:docname="visitor.svg"
   inkscape:version="0.92.3 (2405546, 2018-03-11)"><metadata
   id="metadata1053"><rdf:RDF><cc:Work
       rdf:about=""><dc:format>image/svg+xml</dc:format><dc:type
         rdf:resource="http://purl.org/dc/dcmitype/StillImage" /></cc:Work></rdf:RDF></metadata><defs
   id="defs1051" /><sodipodi:namedview
   pagecolor="#ffffff"
   bordercolor="#666666"
   borderopacity="1"
   objecttolerance="10"
   gridtolerance="10"
   guidetolerance="10"
   inkscape:pageopacity="0"
   inkscape:pageshadow="2"
   inkscape:window-width="1440"
   inkscape:window-height="837"
   id="namedview1049"
   showgrid="false"
   inkscape:zoom="0.80351636"
   inkscape:cx="376.47024"
   inkscape:cy="146.85451"
   inkscape:window-x="-8"
   inkscape:window-y="-8"
   inkscape:window-maximized="1"
   inkscape:current-layer="Capa_1" />
<g
   id="g1016"
   transform="translate(2.4890594,4.9781189)"
   style="fill:#d50000;fill-opacity:1">
	<path
   style="fill:#d50000;fill-opacity:1"
   d="m 251.742,58.307 c 0,0 0,-2.502 0,-5.58 0,-3.078 -0.386,-9.894 -3.878,-13.168 -1.757,-1.648 -4.297,-2.904 -7.93,-2.904 h -19.668 c 0,0 -10.481,0 -10.481,9.834 V 56.98 c 0,11.166 -20.511,10.878 -20.511,10.878 l -84.469,0.044 c 0,0 -20.897,-0.462 -20.897,-9.589 V 44.954 c 0,0 0.658,-8.501 -10.492,-8.501 H 52.449 c 0,0 -10.514,0 -10.514,9.159 v 12.706 c 0,0 0.375,5.461 -8.126,8.246 C 27.331,68.685 13.168,66.673 6.32,72.536 2.768,75.57 0,80.65 0,89.097 v 147.839 c 0,0 0.647,20.32 20.973,20.32 h 250.436 c 0,0 22.3,-1.305 22.3,-19.662 V 88.45 c 0,0 -0.68,-20.309 -21.647,-20.309 0,-0.006 -20.32,-1.338 -20.32,-9.834 z m -31.482,-0.68 c 0,-5.776 4.068,-10.487 9.834,-10.487 h 0.658 c 5.798,0 10.508,4.71 10.508,10.487 v 20.989 c 0,5.776 -4.373,10.481 -10.171,10.481 h -0.658 c -5.798,0 -10.171,-4.699 -10.171,-10.481 V 57.627 Z m -35.925,104.898 h 52.449 c 2.888,0 5.232,2.339 5.232,5.254 0,2.888 -2.344,5.238 -5.232,5.238 h -52.449 c -2.888,0 -5.254,-2.35 -5.254,-5.238 0,-2.916 2.366,-5.254 5.254,-5.254 z m 57.366,26.88 c 0,3.089 -2.491,4.911 -5.564,4.911 h -51.144 c -3.073,0 -5.575,-1.822 -5.575,-4.911 0,-3.073 2.497,-5.575 5.575,-5.575 h 51.144 c 3.073,-0.001 5.564,2.501 5.564,5.575 z M 89.674,99.627 c 16.176,0 29.289,14.354 29.289,33.711 0,19.363 -13.114,35.077 -29.289,35.077 -16.175,0 -29.278,-15.713 -29.278,-35.077 C 60.395,113.981 73.498,99.627 89.674,99.627 Z M 52.764,57.072 c 0,-5.776 4.036,-9.834 9.834,-9.834 h 0.658 c 5.798,0 10.16,4.052 10.16,9.834 v 21.544 c 0,5.776 -4.71,10.481 -10.481,10.481 H 62.25 c -5.765,0 -9.486,-4.699 -9.486,-10.481 0,0 0,-21.544 0,-21.544 z m 91.725,155.568 c -2.567,3.688 -8.322,3.198 -8.322,3.198 H 44.133 c 0,0 -6.211,0.408 -8.947,-3.361 -1.474,-2.034 -0.451,-6.162 0.566,-8.469 l 2.48,-5.64 c 0,0 6.842,-15.306 14.637,-24.182 4.786,-5.439 10.481,-4.199 14.163,-2.431 2.268,1.088 4.835,4.264 6.706,5.945 2.584,2.317 7.141,4.95 14.598,5.096 h 4.574 c 7.452,-0.141 12.009,-2.779 14.588,-5.096 1.876,-1.681 4.368,-4.95 6.614,-6.075 3.383,-1.692 8.523,-2.73 13.184,2.567 7.8,8.877 13.968,24.465 13.968,24.465 l 2.535,5.532 c 1.049,2.278 2.126,6.384 0.69,8.451 z m 92.796,2.328 h -53.439 c -2.807,0 -5.075,-2.252 -5.075,-5.069 0,-2.812 2.268,-5.096 5.075,-5.096 h 53.439 c 2.779,0 5.075,2.284 5.075,5.096 -0.001,2.817 -2.296,5.069 -5.075,5.069 z"
   id="path1014"
   inkscape:connector-curvature="0" />
</g>
<g
   id="g1018">
</g>
<g
   id="g1020">
</g>
<g
   id="g1022">
</g>
<g
   id="g1024">
</g>
<g
   id="g1026">
</g>
<g
   id="g1028">
</g>
<g
   id="g1030">
</g>
<g
   id="g1032">
</g>
<g
   id="g1034">
</g>
<g
   id="g1036">
</g>
<g
   id="g1038">
</g>
<g
   id="g1040">
</g>
<g
   id="g1042">
</g>
<g
   id="g1044">
</g>
<g
   id="g1046">
</g>
</svg>